# xmcd
#
# Track frame offsets: 
#        150
#        15692
#        31022
#        46615
#        61609
#        80504
#        101652
#        118159
#        139238
#        157409
#        179219
#
# Disc length: 2673 seconds
#
# Revision: 0
# Processed by: cddbd v1.5.2PL0 Copyright (c) Steve Scherf et al.
# Submitted via: ExactAudioCopy v1.3
#
DISCID=910a6f0b
DTITLE=El diario de Hank - Definición por oposición
DYEAR=2010
DGENRE=Rock
TTITLE0=Revolución
TTITLE1=Que ocurrirá
TTITLE2=El último adiós
TTITLE3=Hey tú
TTITLE4=Cree en mí
TTITLE5=La gran depresión
TTITLE6=Grado de separación
TTITLE7=Vacíos
TTITLE8=Desafío
TTITLE9=En el día 0
TTITLE10=Ausente (en vivo)
EXTD=
EXTT0=
EXTT1=
EXTT2=
EXTT3=
EXTT4=
EXTT5=
EXTT6=
EXTT7=
EXTT8=
EXTT9=
EXTT10=
PLAYORDER=
